<?xml version="1.0" encoding="UTF-8" standalone="no"?><svg xmlns="http://www.w3.org/2000/svg" xmlns:xlink="http://www.w3.org/1999/xlink" contentScriptType="text/ecmascript" fill="#000000" width="1137.6" zoomAndPan="magnify" contentStyleType="text/css" viewBox="0.0 0.0 1137.6 1157.8" height="1157.8" preserveAspectRatio="xMidYMid meet" version="1"><g id="change1_1"><path fill="#ffffff" d="M 854.414062 849.730469 C 864.085938 812.148438 871.449219 773.613281 876.304688 734.140625 C 876.933594 729.019531 877.519531 723.882812 878.066406 718.730469 L 942.78125 718.730469 C 965.742188 718.730469 984.527344 699.613281 984.527344 676.246094 L 984.527344 612.136719 L 1066.910156 612.40625 C 1061.320312 699.230469 1034.21875 780.164062 990.980469 849.730469 Z M 781.230469 1038.578125 C 801.429688 1000.628906 818.671875 961.238281 832.941406 920.542969 L 937.972656 920.542969 C 894.070312 969.628906 840.863281 1009.929688 781.230469 1038.578125 Z M 684.507812 1073.140625 C 657.71875 1079.640625 630.101562 1083.921875 601.847656 1085.808594 L 601.847656 920.542969 L 758.972656 920.542969 C 738.554688 972.949219 712.542969 1023.03125 680.882812 1070.648438 Z M 808.496094 718.730469 C 803.304688 763.75 794.707031 807.433594 782.714844 849.730469 L 601.847656 849.730469 L 601.847656 718.730469 Z M 565.320312 559.835938 L 530.492188 672.980469 L 508.765625 672.980469 L 508.167969 674.914062 L 507.695312 672.980469 L 487.953125 672.980469 L 450.4375 537.402344 L 412.921875 672.980469 L 393.179688 672.980469 L 392.707031 674.914062 L 392.109375 672.980469 L 370.382812 672.980469 L 335.554688 559.835938 L 300.726562 672.980469 L 279 672.980469 L 278.402344 674.914062 L 277.929688 672.980469 L 258.1875 672.980469 L 200.792969 465.566406 L 255.957031 465.566406 L 281.578125 570.488281 L 314.089844 465.566406 L 335.410156 465.566406 L 335.554688 465.09375 L 335.703125 465.566406 L 357.019531 465.566406 L 389.53125 570.488281 L 415.152344 465.566406 L 485.722656 465.566406 L 511.34375 570.488281 L 543.855469 465.566406 L 565.175781 465.566406 L 565.320312 465.09375 L 565.46875 465.566406 L 586.785156 465.566406 L 619.296875 570.488281 L 644.917969 465.566406 L 715.488281 465.566406 L 741.109375 570.488281 L 773.621094 465.566406 L 794.9375 465.566406 L 795.085938 465.09375 L 795.234375 465.566406 L 816.550781 465.566406 L 849.0625 570.488281 L 874.6875 465.566406 L 929.847656 465.566406 L 872.453125 672.980469 L 852.710938 672.980469 L 852.238281 674.914062 L 851.640625 672.980469 L 829.917969 672.980469 L 795.085938 559.835938 L 760.257812 672.980469 L 738.535156 672.980469 L 737.933594 674.914062 L 737.460938 672.980469 L 717.722656 672.980469 L 680.203125 537.402344 L 642.6875 672.980469 L 622.945312 672.980469 L 622.472656 674.914062 L 621.875 672.980469 L 600.148438 672.980469 Z M 532.269531 849.730469 L 341.847656 849.730469 C 330.039062 807.417969 321.742188 763.734375 316.945312 718.730469 L 532.269531 718.730469 Z M 532.269531 1085.578125 C 501.898438 1083.339844 472.269531 1078.328125 443.628906 1070.769531 C 411.769531 1023.070312 385.671875 972.964844 365.367188 920.542969 L 532.269531 920.542969 Z M 199.628906 920.542969 L 288.847656 920.542969 C 301.679688 957.316406 317.070312 993.019531 334.890625 1027.609375 C 283.929688 999.984375 238.1875 963.65625 199.628906 920.542969 Z M 146.621094 849.730469 C 102.828125 779.285156 75.59375 697.183594 70.488281 609.117188 L 142.636719 609.355469 L 142.636719 676.246094 C 142.636719 699.613281 161.421875 718.730469 184.382812 718.730469 L 244.75 718.730469 C 245.609375 727.445312 246.550781 736.132812 247.65625 744.761719 C 252.222656 780.519531 258.90625 815.519531 267.589844 849.730469 Z M 168.113281 276.164062 L 294.507812 276.164062 C 283.039062 313.742188 272.242188 354.910156 263.316406 398.9375 C 262.277344 404.046875 261.292969 409.148438 260.328125 414.246094 L 184.382812 414.246094 C 161.421875 414.246094 142.636719 433.363281 142.636719 456.730469 L 142.636719 538.542969 L 71.171875 538.308594 C 78.792969 440.589844 113.695312 350.574219 168.113281 276.164062 Z M 352.328125 121.101562 C 341.894531 144.511719 330.148438 172.839844 318.253906 205.351562 L 230.78125 205.351562 C 266.820312 171.542969 307.730469 143.039062 352.328125 121.101562 Z M 532.269531 276.164062 L 532.269531 414.246094 L 333.914062 414.246094 C 344.019531 364.078125 356.820312 317.566406 370.253906 276.164062 Z M 449.855469 85.421875 C 476.558594 78.75 504.089844 74.261719 532.269531 72.179688 L 532.269531 205.351562 L 395.472656 205.351562 C 420.199219 141.761719 442.65625 98.710938 449.855469 85.421875 Z M 601.847656 276.164062 L 761.566406 276.164062 C 773.339844 315.011719 784.46875 358.066406 793.394531 404.210938 C 794.042969 407.5625 794.640625 410.902344 795.257812 414.246094 L 601.847656 414.246094 Z M 601.847656 71.949219 C 630.972656 73.898438 659.417969 78.398438 686.976562 85.230469 C 697.371094 106.121094 717.097656 148.191406 737.9375 205.351562 L 601.847656 205.351562 Z M 906.820312 205.351562 L 812.046875 205.351562 C 800.554688 171.863281 789.074219 142.488281 778.746094 117.988281 C 825.875 140.320312 869.03125 169.90625 906.820312 205.351562 Z M 969.484375 276.164062 C 1024.511719 351.40625 1059.578125 442.609375 1066.671875 541.597656 L 984.527344 541.324219 L 984.527344 456.730469 C 984.527344 433.363281 965.742188 414.246094 942.78125 414.246094 L 865.980469 414.246094 C 864.480469 405.621094 862.921875 396.980469 861.230469 388.316406 C 853.4375 348.390625 844.15625 310.84375 834.265625 276.164062 Z M 568.800781 0 C 255.160156 0 0 259.683594 0 578.878906 C 0 898.074219 255.160156 1157.761719 568.800781 1157.761719 C 882.4375 1157.761719 1137.601562 898.074219 1137.601562 578.878906 C 1137.601562 259.683594 882.4375 0 568.800781 0"/></g></svg>