<svg width="377.952" height="152.973" viewBox="0 0 377.952 152.973" xmlns="http://www.w3.org/2000/svg" xmlns:xlink="http://www.w3.org/1999/xlink" id="svg2" overflow="hidden"><defs id="defs6"><clipPath id="clipPath18"><path d="M0 114.73 283.464 114.73 283.464 0 0 0Z" id="path16"/></clipPath></defs><g id="g10" transform="matrix(1.33333 0 0 -1.33333 0 152.973)"><g id="g12"><g id="g14" clip-path="url(#clipPath18)"><g id="g20" transform="translate(15.4116 113.294)"><path d="M0 0C8.423-2.055 15.663-10.727 15.663-20.975 15.663-42.397-4.546-46.307-4.546-58.871-4.546-60.207-4.411-61.166-4.042-62.409-9.105-61.697-13.391-55.805-13.391-49.019-13.391-31.609 1.789-28.227 1.789-10.108 1.789-5.572 0 0 0 0" id="path22" fill="#E4002B"/></g><g id="g24" transform="translate(35.8755 88.5264)"><path d="M0 0C4.193-3.593 6.314-9.075 6.314-14.147 6.314-32.462-14.401-34.675-14.401-41.683-14.401-42.454-14.328-42.915-14.147-43.458-17.442-42.213-19.96-38.416-19.96-34.864-19.96-23.662-2.828-20.792 0 0" id="path26" fill="#64A70B"/></g><g id="g28" transform="translate(5.0542 107.481)"><path d="M0 0C0 0 1.012-1.79 1.012-3.793 1.012-10.221-5.055-12.674-5.055-19.207-5.055-22.283-3.384-24.815-1.011-26.282-0.942-25.735-0.896-25.197-0.758-24.768 0.665-20.225 7.326-15.197 7.326-8.09 7.326-3.813 3.788-0.32 0 0" id="path30" fill="#00A3E0"/></g><g id="g32" transform="translate(60.3169 56.0742)"><path d="M0 0C2.933-2.643 5.717-4.198 9.731-4.198 11.95-4.198 16.011-3.261 16.011-0.33 16.011 1.367 14.734 2.216 12.236 2.641L5.245 3.776C-0.985 4.77-4.385 8.071-4.385 13.026-4.385 21.145 2.176 24.499 9.354 24.499 14.929 24.499 20.404 22.234 24.182 18.037L17.805 13.453C15.588 16.14 12.328 17.703 8.787 17.703 6.852 17.703 4.019 16.474 4.019 14.303 4.019 12.51 5.48 11.608 8.691 11.092L11.902 10.572C18.607 9.488 24.136 7.41 24.136 0.992 24.136-9.114 15.018-11.006 8.736-11.006 3.025-11.006-2.338-9.155-6.923-4.16Z" id="path34"/></g><g id="g36" transform="translate(105.128 73.4946)"><path d="M0 0C-4.913 0-8.598-3.118-8.598-10.665-8.598-15.579-6.611-21.339 0-21.339 6.234-21.339 8.596-15.864 8.596-10.665 8.596-5.386 6.234 0 0 0M0-28.427C-10.72-28.427-17-20.111-17-10.665-17-1.232-10.72 7.079 0 7.079 10.716 7.079 17.003-1.232 17.003-10.665 17.003-20.111 10.716-28.427 0-28.427" id="path38"/></g><g id="g40" transform="translate(149.603 68.4395)"><path d="M0 0C-1.184 3.117-4.064 5.052-6.987 5.052-11.62 5.052-15.298 1.934-15.298-5.61-15.298-10.523-13.316-16.284-6.706-16.284-4.437-16.284-1.132-14.581 0.187-11.563L6.849-14.774C3.965-20.013-1.038-23.364-6.706-23.364-17.427-23.364-23.707-15.059-23.707-5.61-23.707 3.823-17.851 12.134-7.368 12.134-0.757 12.134 3.587 8.923 6.712 3.352Z" id="path42"/></g><g id="g44" transform="translate(178.177 57.5371)"><path d="M0 0-4.156 13.879-4.25 13.879-8.402 0ZM-8.642 22.094 0.053 22.094 12.75-11.519 3.734-11.519 2.034-6.228-10.389-6.228-12.093-11.519-21.061-11.519Z" id="path46"/></g><g id="g48" transform="translate(202.665 64.3408)"><path d="M0 0 7.697 0C10.392 0.042 12.183 1.407 12.183 4.525 12.183 7.647 10.392 9.009 7.697 9.058L0 9.058ZM-8.405 15.29 8.403 15.29C15.966 15.29 20.591 11.794 20.591 4.243 20.591-0.097 17.852-3.593 13.643-4.818L21.348-18.323 11.944-18.323 5.338-6.235 0-6.235 0-18.323-8.405-18.323Z" id="path50"/></g><g id="g52" transform="translate(104.362 33.2715)"><path d="M0 0C-4.827 0-8.447-3.061-8.447-10.477-8.447-15.31-6.499-20.975 0-20.975 6.126-20.975 8.451-15.595 8.451-10.477 8.451-5.291 6.126 0 0 0M0-27.938C-10.54-27.938-16.708-19.765-16.708-10.477-16.708-1.209-10.54 6.963 0 6.963 10.534 6.963 16.712-1.209 16.712-10.477 16.712-19.765 10.534-27.938 0-27.938" id="path54" fill="#9D9D9D"/></g><g id="g56" transform="translate(180.926 39.3018)"><path d="M0 0 12.108 0 17.95-24.538 18.037-24.538 24.074 0 36.033 0 36.033-33.016 28.244-33.016 28.244-7.381 28.15-7.381 21.614-33.016 14.326-33.016 7.606-7.381 7.516-7.381 7.516-33.016 0-33.016Z" id="path58" fill="#9D9D9D"/></g><g id="g60" transform="translate(258.458 24.0508)"><path d="M0 0 7.559 0C10.196 0.056 11.961 1.399 11.961 4.463 11.961 7.517 10.196 8.856 7.559 8.91L0 8.91ZM-8.261 15.028 8.256 15.028C15.675 15.028 20.226 11.601 20.226 4.186 20.226-0.087 17.532-3.52 13.401-4.725L20.962-17.993 11.733-17.993 5.244-6.116 0-6.116 0-17.993-8.261-17.993Z" id="path62" fill="#9D9D9D"/></g><g id="g64" transform="translate(221.648 6.2246)"><path d="M0 0 0 33.023 24.296 33.023 24.296 26.622 8.248 26.622 8.248 20.592 23.23 20.592 23.23 14.19 8.248 14.19 8.248 6.403 25.687 6.403 25.687 0Z" id="path66" fill="#9D9D9D"/></g><g id="g68" transform="translate(125.159 6.3467)"><path d="M0 0 21.266 0 21.266 6.957 8.458 6.957 8.458 33.131 0 33.131Z" id="path70" fill="#9D9D9D"/></g><g id="g72" transform="translate(65.0352 33.1299)"><path d="M0 0 6.217 0C9.681 0 11.142-1.784 11.142-5.029 11.142-7.544 9.898-9.971 6.428-9.971L0-9.971ZM-8.354-26.674 0-26.674 0-16.23 6.006-16.23C17.094-16.23 19.499-9.484 19.499-5.09 19.499 1.428 16.289 6.037 7.607 6.037L-8.354 6.037Z" id="path74" fill="#9D9D9D"/></g><g id="g76" transform="translate(156.174 6.3467)"><path d="M0 0 8.41 0 8.41 15.359 20.771 32.942 11.241 32.942 4.204 21.558-2.836 32.942-12.367 32.942 0 15.359Z" id="path78" fill="#9D9D9D"/></g></g></g></g></svg>